<?xml version="1.0" encoding="UTF-8"?>
<svg id="Layer_2" data-name="Layer 2" xmlns="http://www.w3.org/2000/svg" viewBox="0 0 62.49 62.49">
  <defs>
    <style>
      .cls-1 {
        fill: none;
      }

      .cls-2 {
        fill: #f13c5c;
      }

      .cls-3 {
        fill: #ff9700;
      }

      .cls-4 {
        fill: #180065;
      }

      .cls-5 {
        fill: #5e38f0;
      }
    </style>
  </defs>
  <g id="Layer_1-2" data-name="Layer 1">
    <g>
      <g>
        <path class="cls-2" d="M42.49,20l-22.49,22.49c-1.25-1.25-2.26-2.67-2.99-4.18-.07-.14-.14-.29-.21-.43,0,0-.01-.02-.02-.03-2.63-5.84-1.54-12.97,3.28-17.78,6.21-6.21,16.25-6.24,22.43-.06Z"/>
        <path class="cls-5" d="M42.49,20c1.21,1.21,2.19,2.58,2.92,4.03h0s0,.01,0,.02c.11,.21,.21,.42,.31,.64,0,0,0,.01,0,.02,2.6,5.83,1.5,12.92-3.3,17.72-6.21,6.21-16.25,6.24-22.43,.06l22.49-22.49Z"/>
        <path class="cls-3" d="M20.07,20.06c-4.82,4.82-5.92,11.94-3.28,17.78,0,.01,.01,.03,.02,.03,.07,.15,.14,.29,.21,.43,.74,1.51,1.74,2.92,2.99,4.18l-4.63,4.63c-3.09,3.09-8.1,3.09-11.18,0-3.09-3.09-3.09-8.1,0-11.18l15.88-15.88Z"/>
        <path class="cls-4" d="M58.3,15.38c3.09,3.09,3.09,8.09,0,11.18l-15.87,15.87c4.8-4.8,5.9-11.89,3.3-17.72,0,0,0-.01,0-.02-.1-.21-.2-.43-.31-.64,0,0,0-.01,0-.01h0c-.74-1.46-1.71-2.82-2.92-4.04l4.62-4.62c3.09-3.09,8.09-3.09,11.18,0Z"/>
      </g>
      <rect class="cls-1" width="62.49" height="62.49"/>
    </g>
  </g>
</svg>