<?xml version="1.0" encoding="UTF-8"?>
<svg id="Layer_2" data-name="Layer 2" xmlns="http://www.w3.org/2000/svg" viewBox="0 0 254.65 38.38">
  <defs>
    <style>
      .cls-1 {
        fill: #fff;
      }

      .cls-2 {
        fill: none;
        stroke: #fff;
        stroke-miterlimit: 10;
        stroke-width: 2px;
      }
    </style>
  </defs>
  <g id="Layer_1-2" data-name="Layer 1">
    <g>
      <g>
        <path class="cls-2" d="M41.62,7.94L19.13,30.43c-1.25-1.25-2.26-2.67-2.99-4.18-.07-.14-.14-.29-.21-.43,0,0-.01-.02-.02-.03-2.63-5.84-1.54-12.97,3.28-17.78,6.21-6.21,16.25-6.24,22.43-.06Z"/>
        <path class="cls-2" d="M41.62,7.94c1.21,1.21,2.19,2.58,2.92,4.03h0s0,.01,0,.02c.11,.21,.21,.42,.31,.64,0,0,0,.01,0,.02,2.6,5.83,1.5,12.92-3.3,17.72-6.21,6.21-16.25,6.24-22.43,.06L41.62,7.94Z"/>
        <path class="cls-2" d="M19.19,8c-4.82,4.82-5.92,11.94-3.28,17.78,0,.01,.01,.03,.02,.03,.07,.15,.14,.29,.21,.43,.74,1.51,1.74,2.92,2.99,4.18l-4.63,4.63c-3.09,3.09-8.1,3.09-11.18,0-3.09-3.09-3.09-8.1,0-11.18l15.88-15.88Z"/>
        <path class="cls-2" d="M57.43,3.32c3.09,3.09,3.09,8.09,0,11.18l-15.87,15.87c4.8-4.8,5.9-11.89,3.3-17.72,0,0,0-.01,0-.02-.1-.21-.2-.43-.31-.64,0,0,0-.01,0-.01h0c-.74-1.46-1.71-2.82-2.92-4.04l4.62-4.62c3.09-3.09,8.09-3.09,11.18,0Z"/>
      </g>
      <g>
        <path class="cls-1" d="M73.33,24.96c-.13-.15-.29-.26-.49-.32s-.49-.09-.86-.09h-1.73v5.43h-4.64V13.87h7.45c2.09,0,3.69,.39,4.79,1.17,1.1,.78,1.64,1.91,1.64,3.41,0,1.16-.38,2.14-1.15,2.93-.76,.79-1.82,1.29-3.16,1.5v.06c.93,.21,1.61,.54,2.03,.99,.42,.45,.79,1.23,1.09,2.34,.31,1.12,.53,1.91,.67,2.35s.29,.86,.46,1.25v.1h-4.83c-.07-.15-.13-.35-.2-.59-.06-.24-.2-1.01-.41-2.28-.11-.72-.21-1.22-.3-1.49-.09-.27-.21-.49-.36-.66Zm1.44-5.68c0-.64-.2-1.11-.59-1.41-.4-.3-1.02-.45-1.86-.45h-2.06v3.89h2.08c.8,0,1.41-.17,1.82-.51,.41-.34,.61-.85,.61-1.53Z"/>
        <path class="cls-1" d="M81.07,29.98V13.87h5.6l3.39,10.64,3.48-10.64h5.14V29.98h-4.08v-9.93l-2.91,9.93h-3.64l-2.98-9.84v9.84h-4Z"/>
        <path class="cls-1" d="M112.94,21.76c.38,.36,.66,.81,.85,1.34,.2,.54,.29,1.13,.29,1.78,0,1.68-.61,3-1.82,3.96-1.22,.96-2.87,1.45-4.96,1.45s-3.71-.38-4.97-1.16-2.08-1.9-2.46-3.4l4.31-1.16c.18,.69,.55,1.22,1.1,1.58,.56,.36,1.26,.54,2.12,.54,.67,0,1.18-.12,1.54-.38,.36-.25,.54-.61,.54-1.08,0-.33-.15-.59-.46-.78-.3-.19-1.03-.36-2.18-.53-.8-.13-1.43-.24-1.87-.33s-.87-.21-1.27-.33c-.44-.14-.83-.3-1.16-.48s-.62-.4-.87-.65c-.4-.4-.7-.86-.89-1.36-.19-.51-.28-1.09-.28-1.76,0-1.67,.61-2.99,1.82-3.98,1.21-.99,2.82-1.48,4.82-1.48,1.79,0,3.27,.4,4.43,1.19s1.96,1.94,2.39,3.45l-4.2,.92c-.19-.68-.5-1.18-.93-1.49-.42-.31-1-.47-1.72-.47-.61,0-1.09,.13-1.45,.38-.35,.26-.53,.61-.53,1.07,0,.38,.17,.67,.51,.88,.34,.21,1.04,.39,2.09,.54,1.03,.15,1.73,.27,2.11,.35,.38,.08,.74,.17,1.07,.27,.44,.12,.83,.28,1.16,.47,.33,.19,.62,.4,.85,.63Z"/>
        <path class="cls-1" d="M131.94,13.87v1.67h-5.56v14.44h-1.96V15.53h-5.56v-1.67h13.07Z"/>
        <path class="cls-1" d="M138.85,30.25c-1.74,0-3.11-.56-4.13-1.67-1.02-1.11-1.53-2.61-1.53-4.49s.51-3.3,1.54-4.45c1.03-1.15,2.35-1.73,3.98-1.73,.98,0,1.85,.22,2.6,.68s1.33,1.09,1.75,1.92c.26,.53,.46,1.12,.59,1.78,.13,.66,.2,1.38,.2,2.16h-8.72c.06,1.29,.42,2.31,1.09,3.07,.67,.76,1.56,1.14,2.67,1.14,.87,0,1.59-.21,2.15-.63,.56-.41,1.02-1.07,1.36-1.95l1.6,.56c-.44,1.16-1.11,2.06-2,2.68-.89,.63-1.94,.94-3.16,.94Zm2.64-8.97c-.26-.57-.64-1.01-1.12-1.32-.48-.31-1.05-.47-1.69-.47-.99,0-1.79,.32-2.41,.97-.63,.65-.99,1.53-1.1,2.65h6.72c-.01-.39-.05-.72-.11-1.01-.06-.28-.16-.56-.28-.82Z"/>
        <path class="cls-1" d="M151.02,19.55c-1.12,0-2.01,.4-2.66,1.21-.65,.81-.98,1.9-.98,3.29s.33,2.53,.99,3.34c.66,.81,1.56,1.22,2.69,1.22,.89,0,1.61-.23,2.18-.7,.56-.47,.99-1.19,1.3-2.18l1.73,.5c-.33,1.25-.96,2.23-1.88,2.94s-2.04,1.07-3.36,1.07c-1.75,0-3.12-.54-4.11-1.64s-1.49-2.6-1.49-4.53,.52-3.32,1.56-4.46c1.04-1.14,2.4-1.72,4.08-1.72,1.33,0,2.44,.38,3.31,1.13s1.48,1.85,1.83,3.28l-1.85,.42c-.22-1.04-.61-1.83-1.18-2.37s-1.28-.81-2.15-.81Z"/>
        <path class="cls-1" d="M158.58,29.98V13.01h1.91v7.78h.04c.42-.92,.99-1.63,1.72-2.13,.73-.51,1.55-.76,2.47-.76,1.32,0,2.32,.41,3.02,1.23,.69,.82,1.04,2.01,1.04,3.58v7.26h-1.9v-6.79c0-1.29-.22-2.23-.68-2.81s-1.18-.87-2.17-.87c-1.1,0-1.96,.42-2.59,1.25s-.95,1.98-.95,3.43v5.79h-1.91Z"/>
        <path class="cls-1" d="M171.94,29.98v-11.82h1.85v2.75h.06c.4-.94,.98-1.68,1.72-2.21,.74-.53,1.58-.79,2.51-.79,1.32,0,2.32,.41,3.02,1.23,.69,.82,1.04,2.01,1.04,3.58v7.26h-1.9v-6.79c0-1.29-.22-2.23-.68-2.81s-1.18-.87-2.17-.87c-1.1,0-1.96,.42-2.59,1.25s-.95,1.98-.95,3.43v5.79h-1.91Z"/>
        <path class="cls-1" d="M190,30.25c-1.69,0-3.03-.55-4.02-1.64-.99-1.1-1.48-2.6-1.48-4.52s.51-3.37,1.52-4.5,2.36-1.69,4.04-1.69,3.01,.55,4,1.64c.98,1.1,1.48,2.59,1.48,4.47s-.49,3.47-1.48,4.57-2.34,1.66-4.06,1.66Zm.04-1.64c1.15,0,2.03-.39,2.64-1.17,.61-.77,.92-1.9,.92-3.37s-.31-2.54-.94-3.34c-.62-.8-1.49-1.2-2.6-1.2s-2.04,.39-2.66,1.16c-.62,.78-.94,1.89-.94,3.33s.31,2.58,.94,3.38c.62,.8,1.5,1.2,2.64,1.2Z"/>
        <path class="cls-1" d="M198.04,29.98V13.01h1.91V29.98h-1.91Z"/>
        <path class="cls-1" d="M207.94,30.25c-1.69,0-3.03-.55-4.02-1.64-.99-1.1-1.48-2.6-1.48-4.52s.51-3.37,1.52-4.5,2.36-1.69,4.04-1.69,3.01,.55,4,1.64c.98,1.1,1.48,2.59,1.48,4.47s-.49,3.47-1.48,4.57-2.34,1.66-4.06,1.66Zm.04-1.64c1.15,0,2.03-.39,2.64-1.17,.61-.77,.92-1.9,.92-3.37s-.31-2.54-.94-3.34c-.62-.8-1.49-1.2-2.6-1.2s-2.04,.39-2.66,1.16c-.62,.78-.94,1.89-.94,3.33s.31,2.58,.94,3.38c.62,.8,1.5,1.2,2.64,1.2Z"/>
        <path class="cls-1" d="M220.49,34.1c-1.89,0-3.32-.24-4.31-.71-.99-.47-1.48-1.16-1.48-2.06,0-.56,.21-1.02,.61-1.4,.41-.38,1.01-.64,1.8-.81v-.04c-.53-.15-.93-.38-1.2-.67s-.41-.65-.41-1.08c0-.46,.15-.87,.46-1.23,.31-.36,.74-.65,1.29-.88v-.02c-.51-.35-.9-.78-1.16-1.31-.26-.53-.4-1.12-.4-1.77,0-1.25,.44-2.26,1.31-3.05s2-1.18,3.39-1.18c.61,0,1.18,.08,1.72,.25,.54,.17,1,.41,1.41,.73l1.58-2.35,1.35,1.15-2.33,1.77c.29,.33,.51,.71,.65,1.14,.15,.42,.22,.88,.22,1.36,0,1.26-.41,2.26-1.23,3-.82,.74-1.93,1.1-3.33,1.1-.47,0-.92-.04-1.34-.12s-.82-.2-1.18-.36c-.28,.11-.49,.26-.64,.46-.14,.2-.22,.4-.22,.62,0,.35,.14,.6,.43,.77,.28,.17,.73,.25,1.34,.25h4.66c1.1,0,1.92,.21,2.48,.63,.55,.41,.83,1.03,.83,1.85,0,1.25-.56,2.22-1.66,2.92-1.11,.69-2.66,1.04-4.66,1.04Zm4.52-3.58c0-.42-.13-.71-.41-.88-.27-.17-.73-.26-1.39-.26h-4.08c-.87,0-1.52,.13-1.95,.38-.42,.26-.64,.64-.64,1.16,0,.57,.34,1,1.03,1.3,.69,.3,1.7,.45,3.03,.45s2.45-.19,3.23-.57c.78-.38,1.16-.9,1.16-1.57Zm-7.39-8.43c0,.78,.25,1.39,.74,1.82,.49,.44,1.18,.66,2.07,.66s1.54-.23,2-.7c.46-.46,.69-1.13,.69-2.01,0-.76-.24-1.37-.73-1.81-.48-.44-1.14-.67-1.98-.67-.87,0-1.56,.24-2.05,.72s-.74,1.14-.74,1.99Z"/>
        <path class="cls-1" d="M230.4,15.22h-2.12v-2.21h2.12v2.21Zm-2.02,14.76v-11.82h1.89v11.82h-1.89Z"/>
        <path class="cls-1" d="M238.48,30.25c-1.74,0-3.11-.56-4.13-1.67-1.02-1.11-1.53-2.61-1.53-4.49s.51-3.3,1.54-4.45c1.03-1.15,2.35-1.73,3.98-1.73,.98,0,1.85,.22,2.6,.68s1.33,1.09,1.75,1.92c.26,.53,.46,1.12,.59,1.78,.13,.66,.2,1.38,.2,2.16h-8.72c.06,1.29,.42,2.31,1.09,3.07,.67,.76,1.56,1.14,2.67,1.14,.87,0,1.59-.21,2.15-.63,.56-.41,1.02-1.07,1.36-1.95l1.6,.56c-.44,1.16-1.11,2.06-2,2.68-.89,.63-1.94,.94-3.16,.94Zm2.64-8.97c-.26-.57-.64-1.01-1.12-1.32-.48-.31-1.05-.47-1.69-.47-.99,0-1.79,.32-2.41,.97-.63,.65-.99,1.53-1.1,2.65h6.72c-.01-.39-.05-.72-.11-1.01-.06-.28-.16-.56-.28-.82Z"/>
        <path class="cls-1" d="M250.07,28.65c.86,0,1.53-.18,2.02-.54s.73-.86,.73-1.5c0-.44-.15-.78-.44-1-.3-.22-1.03-.44-2.2-.64-1.25-.21-2.16-.41-2.74-.6-.58-.2-1.02-.44-1.32-.75-.26-.25-.46-.55-.58-.89-.12-.35-.19-.75-.19-1.21,0-1.07,.4-1.94,1.2-2.6,.8-.67,1.83-1,3.11-1s2.33,.31,3.17,.94,1.37,1.51,1.59,2.64l-1.69,.4c-.15-.81-.49-1.42-1.02-1.83-.53-.42-1.22-.63-2.06-.63-.78,0-1.39,.17-1.83,.52-.44,.35-.67,.82-.67,1.42,0,.5,.18,.88,.54,1.14s1.05,.49,2.08,.67c1.58,.29,2.59,.52,3.04,.68,.45,.16,.82,.38,1.11,.66,.24,.22,.41,.51,.54,.85,.13,.35,.19,.73,.19,1.14,0,1.11-.43,2-1.27,2.68s-1.96,1.02-3.35,1.02c-1.51,0-2.73-.32-3.64-.95-.92-.63-1.49-1.54-1.73-2.73l1.79-.42c.2,.86,.59,1.5,1.19,1.91,.6,.42,1.41,.63,2.43,.63Z"/>
      </g>
    </g>
  </g>
</svg>